<?xml version="1.0" encoding="UTF-8" standalone="no"?>
<svg
   viewBox="0 0 16 16"
   version="1.1"
   id="svg1"
   sodipodi:docname="fan.svg"
   inkscape:version="1.4.3 (0d15f75042, 2025-12-25)"
   xmlns:inkscape="http://www.inkscape.org/namespaces/inkscape"
   xmlns:sodipodi="http://sodipodi.sourceforge.net/DTD/sodipodi-0.dtd"
   xmlns="http://www.w3.org/2000/svg"
   xmlns:svg="http://www.w3.org/2000/svg">
  <sodipodi:namedview
     id="namedview1"
     pagecolor="#ffffff"
     bordercolor="#666666"
     borderopacity="1.0"
     inkscape:showpageshadow="2"
     inkscape:pageopacity="0.0"
     inkscape:pagecheckerboard="0"
     inkscape:deskcolor="#d1d1d1"
     inkscape:zoom="45.254834"
     inkscape:cx="6.3971067"
     inkscape:cy="8.6841551"
     inkscape:window-width="1920"
     inkscape:window-height="999"
     inkscape:window-x="0"
     inkscape:window-y="0"
     inkscape:window-maximized="1"
     inkscape:current-layer="svg1" />
  <defs
     id="defs3051">
    <style
       type="text/css"
       id="current-color-scheme">
      .ColorScheme-Text {
        color:#232629;
      }
      </style>
  </defs>
  <path
     id="path1"
     style="fill:currentColor;fill-opacity:1;stroke:none"
     class="ColorScheme-Text"
     d="M 8,2 C 5.1128119,1.9353033 2.408098,4.2747614 2.0549905,7.1418051 1.7924322,8.9198966 2.4522583,10.775834 3.727822,12.032776 5.1440817,13.526656 7.368216,14.417932 9.3992276,13.787303 12.040233,13.037819 14.170438,10.435517 13.992722,7.6326896 13.862133,5.1281465 12.004532,2.812916 9.5604091,2.2053195 9.0523784,2.0684895 8.5262217,1.9982073 8,2 Z m 0,1 c 2.536405,-0.065831 4.878514,2.1193097 4.996597,4.653627 0.178298,2.3094541 -1.439206,4.633738 -3.7059189,5.184713 C 7.1666915,13.412483 4.712454,12.433852 3.6522557,10.4851 2.5705205,8.6018432 2.8593135,6.0125964 4.437299,4.4900044 5.3670334,3.5522547 6.674589,2.9845024 8,3 Z M 8.2610485,8.6615046 C 8.2573657,7.0224949 8.2536828,5.3834852 8.25,3.7444755 c -0.3333333,0 -0.6666667,0 -1,0 C 7.2733333,5.1629837 7.2966667,6.5814918 7.32,8 m 0.5487186,0.6892328 c 1.4604271,0.018414 2.9208544,0.036829 4.3812814,0.055243 0,-0.3333333 0,-0.6666667 0,-1 -1.657424,-0.00368 -3.3148479,-0.00737 -4.9722718,-0.011049 M 7.25,4.7444755 c 1.1826658,0.019605 2.5762207,0.097701 3.369708,1.1074803 0.602423,0.8318201 0.637975,1.904697 0.630292,2.8925197 0.333333,0 0.666667,0 1,0 C 12.23961,7.2794082 11.961177,5.6023743 10.711321,4.6669325 9.7203992,3.9344218 8.4476043,3.7779146 7.25,3.7444755 c 0,0.3333333 0,0.6666667 0,1 z M 8.2307185,7.255524 C 6.7371415,7.2490044 5.243577,7.2399427 3.75,7.233427 c 0,0.3333333 0,0.6666667 0,1 1.3333333,0.00589 2.6666667,0.011785 4,0.017678 0,1.3333333 0,2.666667 0,4 0.3729398,-0.05167 1.1969543,0.246243 1.0021649,-0.436714 0.00664,-1.353894 0.013288,-2.7077883 0.019932,-4.0616825 M 8.75,11.255525 C 7.5386557,11.230737 6.1147125,11.001607 5.4083942,9.8961271 4.9119759,9.1041991 4.8148294,8.1490162 4.75,7.2378464 4.2991718,7.1861041 3.4543628,7.1276151 3.7718179,7.8490329 3.8438478,9.2914072 4.3862293,10.88702 5.7357345,11.604636 6.6493101,12.117565 7.7182823,12.246721 8.75,12.255524 c 0,-0.333333 0,-0.666666 0,-0.999999 z" />
</svg>
